<svg width="119" height="114" fill="none" xmlns="http://www.w3.org/2000/svg"><path d="M52.8 52.7c-2.4 0-2.4 3.8 0 3.8 2.5 0 2.5-3.8 0-3.8zm18.4 2.7c-1.8 0-1.8 2.8 0 2.8s1.8-2.8 0-2.8zm-5.9 22.7c.066.267.1.5.1.7.1 1.8 2.7 1.8 2.8 0v-.7c.2-1.9-3-1.9-2.9 0zm-23.5-5.7c-.7 0-.7 1.1 0 1.1s.7-1.1 0-1.1zm-3.7-38.9c-2.5 0-2.5 4 0 4 2.6 0 2.6-4 0-4zm30.899-13.8c-2.3 0-2.4 3.7 0 3.7 2.3 0 2.3-3.7 0-3.7zm31.6 13.4c-2.2 0-2.2 3.3 0 3.3 2.1 0 2.1-3.3 0-3.3zM91 83.7c-2.2 0-2.2 3.5 0 3.5 2.3 0 2.3-3.5 0-3.5zm-10.3 24.2c-2.3 0-2.3 3.6 0 3.6 2.4 0 2.4-3.6 0-3.6zm-23.5.7c-1.4 0-1.4 2.3 0 2.3 1.5 0 1.5-2.3 0-2.3zm-26.4-20c-2.5 0-2.5 4 0 4s2.5-4 0-4zM2.1 64.2c-2.8 0-2.8 4.3 0 4.3s2.8-4.3 0-4.3zm102.899-6.7c-2.9 0-2.9 4.5 0 4.5s2.9-4.5 0-4.5zM64.6 35.3c-2.8 0-2.8 4.4 0 4.4 2.9 0 2.9-4.4 0-4.4zM40.5 0c-3.2 0-3.2 5.1 0 5.1 3.3 0 3.3-5.1 0-5.1zm15.6 84.5c-4.6 0-4.6 7.1 0 7.1s4.6-7.1 0-7.1zM116.6 96c-3.1 0-3.1 4.9 0 4.9s3.1-4.9 0-4.9zm-87.9 14.3a.883.883 0 00-.4.1c-1 0-1.9.7-1.8 1.7 0 1 .8 1.8 1.8 1.8h.4c1 .1 1.9-.8 1.8-1.8 0-.9-.8-1.8-1.8-1.8zm0-53.1c2.9 0 2.9-4.5 0-4.5-2.8 0-2.8 4.5 0 4.5zM92.4 43c-1.1 0-2.2.5-2.9 1.2-.7.7-1.2 1.9-1.2 2.9.1 1 .4 2.1 1.2 2.8.8.8 1.8 1.2 2.9 1.2 1 0 2.1-.4 2.8-1.2.8-.7 1.3-1.8 1.2-2.8 0-1.1-.4-2.2-1.2-2.9-.7-.7-1.7-1.2-2.8-1.2z" fill="#AA7B74" fill-opacity=".35"/></svg>