<svg width="688" height="862" fill="none" xmlns="http://www.w3.org/2000/svg"><path fill-rule="evenodd" clip-rule="evenodd" d="M549.431 637.67c6.49-8.45 4.8-21.13 13.22-29.1.78-.73 1.11-2.91.6-3.87-2.87-5.48.74-8.87 3.35-12.91 1.72-2.67 4.49-6.97-.51-8.69-5.25-1.8-1.99-3.64-.38-4.5 11.72-6.15 12.3-20.16 20.47-29.07 3.25-3.55 6.26-11.29 5.94-16.4-.44-6.93 3.48-9.03 6.9-12.64.91-.96.9-3.13.76-4.69-.34-3.71-2.14-6.94-3.94-10.13l.03-.72c.16-2.67-.49-7.23.62-7.71 8.21-3.54 5.1-12.29 8.73-17.87 1.39-2.14 1.41-7.77-3.47-6.84-4.31.83-10.2.8-12.44 5.95-6.13 14.12-17.67 25.12-22.86 39.67-2.24 6.27-8 7.62-12.55 10.62-1.57 1.03-2.52-.71-3.05-2.94-2.17-9.2 1.93-15.3 8.87-20.38 3.05-2.23 5.91-4.63 7.9-8.01 8.42-14.32 11.4-30.14 13.07-46.34-.65-.87-1.3-1.75-1.95-2.62 3.91-4.13 8.24-8.11 5.11-14.68-.68-1.43.09-1.79 1.31-2.02 4.9-.94 4.91-4.74 4.9-8.52-.01-2.52 2.55-13.22 3.82-16.04.22-.48.68-1.22.51-1.45-4.51-5.89 2.63-8.93 3.27-13.54 1.11-1.77.83-3.65.45-5.54l.3-.07 1.11-.12-1.15-.3c-.24-.42-.34-.87-.31-1.35.27-2.45.55-4.89.82-7.34 1.73-4.93 6.59-9.47 1.25-15.19-1.65-1.77.32-3.34 2.05-4.31 2.54-.2 3.69 1.75 5.21 3.24 1.25 1.22-.91 4.19 2.31 4.29 1.29.04 1.97-.6 2.07-1.85.19-2.32-.41-3.64-3.03-4.62-1.61-.6-1.96-3.44-4.07-5.02-1.77-1.32-2.55-7.18.99-8.43 4.97-1.75 3.64-6.14 6.71-9.08-3.5-1.01-7.33 5.19-8.64-1.42-1.62-1.87-3.26-4.26-4.8-.09 0-.01-.01-.01-.01-.02-5.19-6.43-4.16-13.71-.1-19.39 8.82-12.32 15.55-25.76 23.4-38.55 9.82-16.01 20.41-31.66 30.77-47.4 2.49-3.79 3.99-8.06 3.98-12.75-6.13 6.41-9.61 14.45-15.61 20.65-7.34-1.21-13.26-4.63-16.81-11.34-1.05-1.98-1.84-3.92-4.36-3.94-.51-.01-1.19.93-1.51 1.58-1.41 2.79.41 4.55 2.23 6.16 1.49 1.31 4.43 1.55 3.56 4.52-.86 2.92-3.51 2.87-5.93 3-.08-.47-.17-.95-.26-1.42-.24.12-.47.25-.71.37l.96 1.05c6.43 5.67 1.59 10.29-1.04 15-3.04.54-1.23-4.98-4.26-3.14-2.07 1.26-.96 3.63.06 5.72 1.95 3.99 7.43 4.34 8.71 8.86-5.52 7.7-9.26 17.14-19.68 20.03-4.96-.62-9.62-1.91-13.14-5.79 2.14-2.11 2.53-4.33 1.12-7.16-2.17-4.35-5.19.19-7.59-.98l-.09-1.66c-1.07-3.38 1.57-5.13 3.64-6.1 4.91-2.32 4.83-5.32 2.32-9.21 3.86-1.12 6.27-3.26 3.88-7.38-2.65-4.55-.47-7.79 2.25-11.07 3.36-.64 7.7-.9 6.3-5.8-.64-2.26-3.64-5.26-5.71-5.38-3.99-.24-3.24 4.59-4.78 7.09-.51.82.35 2.49.59 3.77-4.45 2.65-8.89 5.29-13.34 7.94 2.15-5.17 8.57-8.89 5.39-15.87 3.05-.16 5.4-2.14 5.29-4.72-.17-4.02-3.81 2.16-5-1.12-.2-.55-1.27-.78-1.94-1.16-.03-2.24 1.54-3.42 3.08-4.62 6.83-.99 3.38-6.83 4.39-11.48 2.28 3.21 3.4 7.7 7.11 3.02 3.52 1.07 2.59 4.33 3.31 6.76-.92 2-4.72 2.73-3.12 5.64.91 1.65 3.08 3.57 4.76 3.65 5.55.26 2.83-5.12 4.53-7.6 5.91-4.2-.11-8.68.32-13.01-1.73.52-3.92 3.36-5.02.4-2.02-5.4-5.3-2.27-8.24-1.98-1.58-.43-3.16-.87-4.74-1.3 5.33-10.72 9.84-21.9 16.79-31.74 3.44-4.87 4.35-10.18 4.03-15.89 2.44-2.39.4-4.82.06-7.23 5.83 2.05 5.57-2.5 6.97-5.95 1.8-4.45-1.64-2.56-3.12-3.11-.88-3.46-3.95-4.96-6.47-6.72-2.49-1.75-2.93-3.51-1.65-6.02 3.13-5.42 2.29-11.47 2.65-17.31.02-.29-1.01-.65-1.73-.99.02.77.04 1.53.05 2.3-.88-.48-1.66-.95-1.51-1.45-.15.5.64.98 1.51 1.45-.02-.77-.04-1.53-.05-2.3v-.08l-.26-.04c5.89-16.83 16.3-31.57 24.2-48.35-3.33.13-4 1.28-4.8 2.39-5.54 7.69-11.96 14.88-15.11 24-1.59 4.6-6.58 5.43-8.71 10.44-3.17 7.48-7.57 16.26-17.9 17.62-1.49-5.65-.05-10.76 3.67-14.95 2.71-3.04.41-4.93-.79-7.1-.95-1.71-2.69-1.74-4.21-.78-2.15 1.35-4.2 3.15-2.48 5.9 3.14 5.04-.83 7.84-3.12 11.23-5.15.16-8.69 1.9-7.8 7.97-3.72-2.65-8.52-9.42-7.76 2.61.18 2.84-3.71 4.23-6.94 3.72-2.61-.41-5.16-1.14-7.74-1.73.7-2.08 3.21-4.93-1.24-5.41-4.53-.49-7.08 3.13-8.11 6.63-.92 3.13 2.31 1.64 3.89 1.78l.26.57.15 6.43c-6.86 1.79-1.77 6.26-2.14 9.52-2.36.64-4.72 1.28-7.08 1.91.55-2.36 1.1-4.73 1.64-7.09.28-.6.91-1.33.75-1.77-.44-1.19-1.42-1.08-2.37-.45-5.17 4.32-4.64 12.04-9.77 16.38-10.45-.39-6.98 6.51-6.27 11.96-1.89 2.26-3.63 4.68-5.7 6.75-3.06 3.05-6.83 6.57-11.02 3.18-4.21-3.42.13-7.24 1.33-10.8.69-2.04 1.98-2.74 4.17-2.9 1.97-.15 4.08-2.24 2.8-3.86-4.03-5.12-1.39-10.12-.78-15.25.2-1.63.78-5.2-3.05-2.42-1.98-1.3-1.77-3.45-2.1-5.4 2.63-4.72 5.48-9.33 7.86-14.17 7.66-15.56 18.97-29.07 25.31-45.35 3.27-4.96 6.25-10.04 7-16.13-3.51 3.76-6.46 7.79-7.69 12.83-2.54 1.45-8.35.62-6.94 4.79 2.16 6.39-2.31 9.35-4.46 13.63-5 9.94-13.31 17.31-20.05 25.88-4.06 5.16-7.93 10.07-15.48 8.87-.73-1.27-1.46-2.53-2.2-3.8 17.51-31.53 37.65-61.63 53.57-95.58-3.91 1.16-4.5 3.12-5.41 4.71-8.75 15.28-17.58 30.52-26.13 45.91-13.06 23.53-29.14 45.15-42.98 68.18-.54.9-1.67 1.51-2.04 2.44-3.52 8.83-13.56 11.78-16.67 22.43-5.09 17.4-19.86 30.08-29.19 45.65-5.79 9.66-13.37 18.56-17.37 28.87-3.32 8.58-6.25 6.06-11.17 3.02 3.96-5.73 7.53-11.46 11.67-16.75 9.77-12.5 14.84-27.61 23.24-40.94 7.56-12 13.95-25.01 15.8-39.56 4.78-4.79 5.02-11.81 8.45-17.26-3.49-4.76 4.51-14.02-6.23-16.06-.1-.02-.12-2.13.33-2.99 1.27-2.43-.24-4.18-1.23-6.02-4.17-7.79-8.4-15.54-12.6-23.3-13.66-25.27-27.33-50.53-41.04-75.85-3.05 1.77-3.72 4.55-4.96 6.86-51.27 94.68-102.51 189.39-153.74 284.09-55.55 102.7-111.09 205.42-166.64 308.12-19.35 35.79-38.61 71.62-58.18 107.29-3.46 6.31-2.17 7.77 4.59 7.42 7.57-.38 15.19-.01 22.78.04 2.54 1.43 4.72 1.3 6.32-1.42 4.77 1.15 9.61 1.56 14.49 1.25 3.46-.22 7.13 1.02 10.33-.9 3.67-2.21 1.86-6.39 2.33-9.76 5.17 1.71 1.49 6.21 3.22 9.02 8.97-8.69 12.29-14.21 13.82-22.44.07-.35.83-.58 1.27-.86l-.16.18c.08-.04.14-.06.21-.09-.02-.03-.03-.06-.05-.09 2.25-2.23-2.74-10.69 6.17-7.21.19-.74.69-1.55.53-2.2-2.12-8.3 8.22-15.56-.23-24.61 6.71 1.32 7.68 5.17 9.16 8.6.61 1.42.8 3.62 2.88 3.31 1.94-.29 2.16-2.22 1.64-3.81-1.3-4.04 1.6-4.47 4.23-5.21 0 0 .51.51.5.51.17 1.55-2.62 4.08.72 4.46 3.62.42 4.73-3.87 4.39-5.64-1.16-6.19 2.49-7.72 9.37-8.57-5.84-2.47-5.76-5.77-4.47-8.72 1.41-3.21 4.03-2.44 6.7-1 2.93 1.58 3.55-1.02 4.5-2.93 1.19-2.38-.41-5.3 1.42-7.53-.09-.05-.18-.12-.27-.17.09.06.18.12.27.17l.01.01c4.31 1.55 4.42-1.77 4.78-4.34.53-3.74.56-7.55 1.11-11.28.39-2.69 2.46-5.51 4.59-2.36 6.04 8.92 7.26.4 7.92-2.47 1.5-6.53 1.65-13.36 2.35-20.07.64-.03 1.29-.07 1.93-.1 5.73-1.37 4.79-9.84 5.6-9.83 10.49.15 5.84-12.19 12.6-14.58-.24-10.58 8.95-16.26 13.86-23.67 5.42-8.19 11.06-16.15 15.22-25.1 5.54-11.92 9.17-24.56 13.6-36.97 1.9 1.17.56 4.49 3.12 4.47 2.24-.02 2.57-2.49 3.32-4.13 1.02-2.21 1.77-4.54 2.72-6.79 4.34-10.21 9.09-17.03 15.59-21.31-6.09 15.36-8.89 30.32-17.54 43.28-12.74 19.07-21.34 40.36-31.38 60.87-.79 1.62-1.56 3.97-.97 5.42 1.98 4.81-.29 7.9-2.92 11.56-2.31 3.22-5.5 7.67 1.44 10.06l.12 2.43c-6.62 3.6-10.11 9.52-12.51 16.4-.77 2.22-2.42 4.16-3.79 6.14-7.04 10.15-12.61 20.77-11.07 33.73-7.43-1.91-9.28 1.68-8.11 8.24.7 2.71 1.4 5.41 2.42 9.34 4.5-6.66 9.04-11.29 11.16-17.66 1.07-3.23 3.71-6.01 7.49-3.81 4.43 2.58 2.27 5.93 0 8.88-.82 1.06-1.8 2.03-2.83 2.89-4.99 4.12-7.25 9.97-9.89 15.56-4.83 10.22-2.35 22.53-8.43 32.18-3.21 5.1.03 10.87-3.6 15.69-1.5 2-.55 2.71 14.49 2.87 3.52.04 7.05-.02 10.57.01 1.34.01 3.69-.2 3.88.32 2.71 7.47 6.13 2.46 8.94.43 5.42-3.9 6.12 3.94 10.18 3.86 1.79-.04 3.29 3 2.2 4.5-4.44 6.15-3 14.34-7.48 20.38.42.36.83.72 1.24 1.08 5.6-1.98 6.62 1.61 6.83 5.81.53 10.5-2.54 20.83-7.76 29.07-8.1 12.79-15.32 26.17-24.44 38.4-8.24 11.04-14.95 23.23-22.29 34.93-1.75 2.79-2.2 5.87.74 8.01 2.82 2.04 5.76 1.34 7.78-1.57 12.19-17.48 22.53-36.21 32.89-54.69 10.79-19.27 32.18-42.89 54.47-51.5-5.19 10.1-9.86 18.89-19.22 24.14-.59-3.42-2.68-3.78-4.95-1.87-2.38 2.01-3.91 4.55.05 6.77-.4 3.1-3.49 3.06-5.31 4.47-7.74 5.97-7.69 9.17.41 15.34-.82 3.85-7.01 1.52-7.15 6.47-.28 9.7-6.27 17.38-12.13 23.63-4.85 5.16-4.89 11.11-8.63 16.35 4.71.67 5.09-2.73 6.49-4.71 14.1-19.98 26.81-41 44.01-58.67 1.59-.54 3.18-1.07 4.78-1.61-1.59.54-3.19 1.07-4.79 1.62-.59 3.29-2.32 6.61.3 9.79.08 2.13-.06 4.64 3.31 3.22 2.44-1.03 4.9-1.63 7.53-1.48 1.22 3.8-3.75 5.91-2.68 9.68 3.14 1.04 6.06 1.83 5.38-3.46-.33-2.58-.32-5.21-.46-7.82 1.63.24 2.63-.54 3.18-2.05.54.09 1.08.18 1.63.27 3.23 4.22 7.29 4.89 11.74 1.95l2.49 1.77c2.7 1.46 5.32 2.09 7.93-.58-2.64-2.32-4.88-.85-7.12-.16-.44-2.09-.84-4.22-3.82-2.69-1.08-.09-2.17-.18-3.26-.26l7.92-9.21c2.36-2.78 8.26.21 8.87-5.44 1.87-1.84 5.35-.56 7.14-3.91-2.79-.78-5.57.32-6.68-4.63-1.17-5.27 3.61-5.52 3.54-6.84-.41-8.03 4.19-5.49 8.39-4.96 1.51.19 4 1.17 4.76-1.54.63-2.27-.54-3.54-2.71-4.06l-.19-.17c-.01-.53.01-1.05.08-1.58 2.12-2.64 5.93-3.86 6.51-7.78 2.18.7 3.15-1.29 4.65-2.1l6.12 4.95c1.4 1.82.45 3.66-.11 5.4-4.32 13.5-11.97 25.19-20.09 36.6-1.56 2.19-4.04 3.98-2.45 7.08 1.32 2.56 3.65 4.27 6.46 4.35 3.29.1 4.46-2.71 5.27-5.34 1.28-4.14 2.19-8.14 7.77-8.93 2.75-.39 4.58-3.58 3.79-6.35-2.22-7.78 2.36-12.12 7.4-16.41 1.22-1.04 3.27-1.84 3.57-3.08 3.07-12.61 13.81-16.22 23.84-20.58 5.37-2.33 9.45-6.03 13.41-10.25 7.83-8.3 17.41-13.18 29.93-13.59-5.24 16.27-12.82 30.82-16.86 46.59 1.99.54 2.9.29 3.74-.62.78-.84 1.13-2.45 2.81-2 1.97 2.61-3.61 6.97 1.62 8.29 3.82.97 4.83-3.47 6.94-5.61 4.76-4.8 4.75-14.18 14.18-14.64.52-.03 1.48-2.4 1.28-3.51-.65-3.51.64-6.9-1.49-10.73-2.15-3.86-1.87-12.33 1.32-13.15 8.32-2.15 9.04-8.15 11.08-14.17.73-2.15 1.49-4.61 4.71-4.86 3.5-.28 3.67 2.62 4.82 4.49 1.25 2.05 2.2 4.3 3.1 6.54.46 1.13.01 3.53 1.67 3 5.1-1.64 12.43.58 14.66-6.35 2.99-9.29 8.79-17.71 8.38-28.11-.23-5.63.27-11.33.87-16.95.32-2.97 2.49-5.05 5.67-4.53 2.96.48 3.28 3.14 3.41 5.7.21 3.99-2.02 7.26-3.02 10.89-.72 2.6-1.35 5.52.82 7.71 2.21 2.24 4.49.05 6.77-.4 6.16-1.22 9.89-5.12 11.82-10.73 4.64-13.46 16.96-22.53 20.68-36.48.13-.5.56-.93.9-1.35 2.85-3.5 6.25-5.48 10.59-2.85 4.45 2.71 4.03 6.75 1.99 10.69-2.03 3.92-5.43 6.66-8.86 9.39-6.74 5.36-11.42 11.86-13.12 20.71-1.59 8.26-6.19 15.7-5.99 24.67.09 3.99.41 9.19-1.38 12.28-3.48 6.02.5 5.16 3.58 5.23 8.14.16 16.3-.33 24.41.16 5.21.32 7.56-1.23 9.06-6.38 3.05-10.46 5.31-21.73 10.95-30.74 8.05-12.78 13.48-26.93 22.75-39zm-2.27-340.75c0 .04-.02.08-.02.13 0-.04.02-.08.02-.13zm17.97 15.79l-.06.04-.02.02c-.01.01.08-.07.08-.06 1.11-.72 2.01-1.6 2.58-2.73-.57 1.14-1.47 2.02-2.58 2.73zm10.05-13.15c.01 2.03-.66 3.66-1.96 4.95 1.3-1.28 1.98-2.92 1.96-4.95 2.01-.08 4.03-.15 6.04-.23-2.01.08-4.03.16-6.04.23zm22.48 54.15c0 .02-.01.03-.01.05 0-.02 0-.03.01-.05zm-.21 1.14c-.01.08-.03.16-.04.24 0-.08.03-.16.04-.24zm-11.66-76.81l.04.04c-.02-.01-.03-.03-.04-.04zm-46.92-141.26l2 1.46c.37.44.74.88 1.11 1.31-.37-.44-.74-.88-1.11-1.31-.66-.49-1.33-.98-2-1.46 0 0-.04-.06-.1-.12l.1.12zM88.831 588.05c.23-.19.46-.39.69-.58-.23.19-.47.39-.69.58zm168.92 177.61s0-.01.01-.01c0 .01-.01.01-.01.01zm-12.17 28.86v.02c-.01 0 0-.01 0-.02zm21.59-21.22c-.55-1.64-.37-3.53-1.14-5.1.77 1.57.58 3.46 1.14 5.1zm202.33-132.44c-1.15 2.29-1.64 4.91-1.58 7.79-.06-2.88.42-5.5 1.58-7.79zm5.57-5.83c-.01 0-.01 0 0 0 .01-.05.03-.11.05-.16-.02.06-.04.11-.05.16.05-.03.08-.06.13-.09-.05.03-.09.06-.13.09zm23.01-498.42c-.04-.2-.08-.4-.13-.59.05.19.1.39.13.59zm-.33-1.23c-.06-.15-.12-.3-.2-.43.07.13.14.28.2.43zm.3 3.3c.04-.04.08-.07.12-.11-.04.04-.08.08-.12.11zm-.92-4.29c-.09-.09-.17-.18-.27-.26.1.08.19.17.27.26zm-.46-.37c-.09-.06-.18-.12-.28-.16.1.05.19.11.28.16zm-.61-.26a.989.989 0 00-.26-.07c.1.01.18.05.26.07z" fill="#EBB884"/><path fill-rule="evenodd" clip-rule="evenodd" d="M181.6 729.66c-3.8-2.19-2.54 2.55-3.53 4.19-5.56 9.22-3.98 20.67-9.33 30.23 5.45-5.82 8.36-13.27 14.21-18.63 2.18-2 2.94-5.57 3.73-8.79 1.13-4.63-3.13-5.88-5.08-7zM625.831 209.1c-.08 3.48 3.48 2.23 5.72 2.37l.02.04c.04 2.93 1.28 6.71-.09 8.64-5.12 7.19.53 7.69 4.94 9.23-1.3-3.99-.19-7.23 2.77-10.16 3.96-3.91 1.58-9.18.59-12.8-.92-3.37-5.43-.69-8.08 1.16-.21.15-.51.15-.76.26-1.7.71-5.03-2.27-5.11 1.26zm61.61-94.82c-10.25 6.5-20.57 12.88-26.92 23.62 11.31-5.24 18.56-15.12 26.92-23.62zm-406.53 687.34c-5.22.13-5.83 5.3-6.72 8.74-.83 3.22 2.05 6.54 5.54 6.51 5.77-.04 4.53-5.54 5.91-9.51-.04-2.84-1.12-5.84-4.73-5.74zm124.12-31.09c4.13-6.88 8.82-13.54 8.95-23.67-8.06 7.04-8.27 15.45-8.95 23.67zm207.76-577.3c1.21-1.92-.88-2.81-2.39-3.24-2.22-.63-2.42.68-2.59 2.62-.28 3.04-1.16 6.02-1.79 9.03 5.26-.29 4.86-5.38 6.77-8.41zm-6.77 8.42c-.05 0-.08.01-.13.01v.1c.04-.01.08-.03.12-.04-.01-.02 0-.05.01-.07zM266.06 804.28c-2.48-3.53-7.18-1.02-10.59-2.61-.81 1.89 1.23 2.73 1.53 4.22l-.27.54c.09-.18.18-.35.27-.54.91.52 2.07.84 2.67 1.61 1.09 1.39.43 5.2 3.93 2.93 2.06-1.34 3.96-4.01 2.46-6.15zm-17.919 27.64c-2.05.65-3.65 2.02-3.58 4.44.06 2.1 1.46 3.61 3.6 3.43 2.38-.21 3.82-1.88 3.76-4.34-.04-2.19-1.42-3.32-3.78-3.53zM588.702 71.1c2.12-.29 3.43-1.73 3.56-3.82.14-2.3-1.41-3.32-3.53-3.58-2.37.72-3.76 2.24-3.44 4.76.23 1.85 1.53 2.89 3.41 2.64zm-15.51 29.2c1.37-.83 2.44-2.57 2.29-4.72-.12-1.71-1.47-2.89-3.27-2.7-2.17.24-3.11 1.91-3.11 3.92 0 2.08.92 3.55 4.09 3.5zm47.468 240.66c-1.42 1.68-.7 4.67 2.05 5.96 5.57 2.62 1.96-5.34 6.05-4.52-2.91-1.54-5.7-4.26-8.1-1.44zm-380.009 465c.04-.01.09-.01.13-.02-.01-.03-.01-.06-.02-.09-.04-.01-.08-.03-.12-.04 0 .05 0 .1.01.15zm-1.451 5.44c2.34-.82 1.65-3.4 1.45-5.44-2.22.31-4.44.63-6.66.93 2.13 1.37 1.98 5.63 5.21 4.51zm31.842 18.48c-3.47 2.34-5.61 5.51-6.19 9.69 3.59-2.12 5.14-5.72 6.93-9.14 2.46-1.2 4.36-2.77 4.25-6.34-3.93.55-4.43 3.2-4.99 5.79zM600.67 248.07c.27.6 1.07 1.17 1.74 1.35.93.25 1.47-.2.47-1.9-.23-.18-1.02-.8-1.81-1.41-.16.67-.62 1.47-.4 1.96zm16.402 130.69c-.04.66.3 1.34.57 2.4.69-.89 1.33-1.4 1.51-2.04.17-.6.02-1.8-.3-1.93-1.29-.5-1.72.56-1.78 1.57zm21.849-148.01c-.79-.42-1.58-.85-2.36-1.26l1.97 1.88c.13-.21.26-.41.39-.62zm-2.359-1.27l-.1-.1c-.01-.01-.02-.01-.03-.01 0 .01 0 .03.01.04.03.03.07.05.12.07zM189.091 746.34c.86.43 1.39-1.02 1.42-2.07-.41-.36-.83-.72-1.24-1.08-.78 1.04-1.69 2.4-.18 3.15zM82.26 689.83c-.06-.8-.33-1.34-1.18-1.03.31.57.61 1.14.92 1.72.1-.23.28-.47.26-.69zM614.191 370.3l-.44-.24-.05.37.49-.13z" fill="#EBB884"/></svg>